<svg width="400" height="92" viewBox="0 0 400 92" fill="none" xmlns="http://www.w3.org/2000/svg">
<rect width="400" height="92" rx="46" fill="#00BE35"/>
<path d="M102.598 52.5273C102.376 55.5872 101.243 57.9961 99.1992 59.7539C97.168 61.5117 94.4857 62.3906 91.1523 62.3906C87.5065 62.3906 84.6354 61.1667 82.5391 58.7188C80.4557 56.2578 79.4141 52.8854 79.4141 48.6016V46.8633C79.4141 44.1289 79.8958 41.7201 80.8594 39.6367C81.8229 37.5534 83.1966 35.9583 84.9805 34.8516C86.7773 33.7318 88.8607 33.1719 91.2305 33.1719C94.5117 33.1719 97.1549 34.0508 99.1602 35.8086C101.165 37.5664 102.324 40.0339 102.637 43.2109H96.7773C96.6341 41.375 96.1198 40.0469 95.2344 39.2266C94.362 38.3932 93.0273 37.9766 91.2305 37.9766C89.2773 37.9766 87.8125 38.6797 86.8359 40.0859C85.8724 41.4792 85.3776 43.6471 85.3516 46.5898V48.7383C85.3516 51.8112 85.8138 54.0573 86.7383 55.4766C87.6758 56.8958 89.1471 57.6055 91.1523 57.6055C92.9622 57.6055 94.3099 57.1953 95.1953 56.375C96.0938 55.5417 96.6081 54.2591 96.7383 52.5273H102.598ZM129.59 62H123.73V49.8125H112.305V62H106.445V33.5625H112.305V45.0859H123.73V33.5625H129.59V62ZM158.086 48.4258C158.086 51.2253 157.591 53.6797 156.602 55.7891C155.612 57.8984 154.193 59.526 152.344 60.6719C150.508 61.8177 148.398 62.3906 146.016 62.3906C143.659 62.3906 141.556 61.8242 139.707 60.6914C137.858 59.5586 136.426 57.944 135.41 55.8477C134.395 53.7383 133.88 51.3164 133.867 48.582V47.1758C133.867 44.3763 134.368 41.9154 135.371 39.793C136.387 37.6576 137.812 36.0234 139.648 34.8906C141.497 33.7448 143.607 33.1719 145.977 33.1719C148.346 33.1719 150.449 33.7448 152.285 34.8906C154.134 36.0234 155.56 37.6576 156.562 39.793C157.578 41.9154 158.086 44.3698 158.086 47.1562V48.4258ZM152.148 47.1367C152.148 44.1549 151.615 41.8893 150.547 40.3398C149.479 38.7904 147.956 38.0156 145.977 38.0156C144.01 38.0156 142.493 38.7839 141.426 40.3203C140.358 41.8438 139.818 44.0833 139.805 47.0391V48.4258C139.805 51.3294 140.339 53.582 141.406 55.1836C142.474 56.7852 144.01 57.5859 146.016 57.5859C147.982 57.5859 149.492 56.8177 150.547 55.2812C151.602 53.7318 152.135 51.4792 152.148 48.5234V47.1367ZM185.703 48.4258C185.703 51.2253 185.208 53.6797 184.219 55.7891C183.229 57.8984 181.81 59.526 179.961 60.6719C178.125 61.8177 176.016 62.3906 173.633 62.3906C171.276 62.3906 169.173 61.8242 167.324 60.6914C165.475 59.5586 164.043 57.944 163.027 55.8477C162.012 53.7383 161.497 51.3164 161.484 48.582V47.1758C161.484 44.3763 161.986 41.9154 162.988 39.793C164.004 37.6576 165.43 36.0234 167.266 34.8906C169.115 33.7448 171.224 33.1719 173.594 33.1719C175.964 33.1719 178.066 33.7448 179.902 34.8906C181.751 36.0234 183.177 37.6576 184.18 39.793C185.195 41.9154 185.703 44.3698 185.703 47.1562V48.4258ZM179.766 47.1367C179.766 44.1549 179.232 41.8893 178.164 40.3398C177.096 38.7904 175.573 38.0156 173.594 38.0156C171.628 38.0156 170.111 38.7839 169.043 40.3203C167.975 41.8438 167.435 44.0833 167.422 47.0391V48.4258C167.422 51.3294 167.956 53.582 169.023 55.1836C170.091 56.7852 171.628 57.5859 173.633 57.5859C175.599 57.5859 177.109 56.8177 178.164 55.2812C179.219 53.7318 179.753 51.4792 179.766 48.5234V47.1367ZM204.707 54.5391C204.707 53.4323 204.316 52.5859 203.535 52C202.754 51.401 201.348 50.776 199.316 50.125C197.285 49.4609 195.677 48.8099 194.492 48.1719C191.263 46.4271 189.648 44.0768 189.648 41.1211C189.648 39.5846 190.078 38.2174 190.938 37.0195C191.81 35.8086 193.053 34.8646 194.668 34.1875C196.296 33.5104 198.118 33.1719 200.137 33.1719C202.168 33.1719 203.978 33.543 205.566 34.2852C207.155 35.0143 208.385 36.0495 209.258 37.3906C210.143 38.7318 210.586 40.2552 210.586 41.9609H204.727C204.727 40.6589 204.316 39.6497 203.496 38.9336C202.676 38.2044 201.523 37.8398 200.039 37.8398C198.607 37.8398 197.493 38.1458 196.699 38.7578C195.905 39.3568 195.508 40.151 195.508 41.1406C195.508 42.0651 195.97 42.8398 196.895 43.4648C197.832 44.0898 199.206 44.6758 201.016 45.2227C204.349 46.2253 206.777 47.4688 208.301 48.9531C209.824 50.4375 210.586 52.2865 210.586 54.5C210.586 56.9609 209.655 58.8945 207.793 60.3008C205.931 61.694 203.424 62.3906 200.273 62.3906C198.086 62.3906 196.094 61.9935 194.297 61.1992C192.5 60.3919 191.126 59.2917 190.176 57.8984C189.238 56.5052 188.77 54.8906 188.77 53.0547H194.648C194.648 56.1927 196.523 57.7617 200.273 57.7617C201.667 57.7617 202.754 57.4818 203.535 56.9219C204.316 56.349 204.707 55.5547 204.707 54.5391ZM231.68 49.6758H220.43V57.293H233.633V62H214.57V33.5625H233.594V38.3086H220.43V45.0859H231.68V49.6758ZM264.141 50.3789H252.891V62H247.031V33.5625H265.547V38.3086H252.891V45.6523H264.141V50.3789ZM275.176 62H269.316V33.5625H275.176V62ZM286.484 57.293H298.926V62H280.625V33.5625H286.484V57.293ZM319.414 49.6758H308.164V57.293H321.367V62H302.305V33.5625H321.328V38.3086H308.164V45.0859H319.414V49.6758Z" fill="white"/>
</svg>
