<svg width="550" height="550" viewBox="0 0 550 550" fill="none" xmlns="http://www.w3.org/2000/svg">
<rect x="12.5" y="12.5" width="525" height="525" rx="32.5" stroke="#00BE35" stroke-width="25" stroke-linejoin="round"/>
<path d="M252 119.371C252 107.016 262.016 97 274.371 97V97C286.726 97 296.742 107.016 296.742 119.371V447.629C296.742 459.984 286.726 470 274.371 470V470C262.016 470 252 459.984 252 447.629V119.371Z" fill="#00BE35"/>
<path d="M234.322 111.519C250.406 93.5591 278.768 91.1312 297.67 106.096V106.096L184.786 232.144C176.745 241.124 162.564 242.338 153.113 234.856V234.856C143.662 227.373 142.519 214.028 150.561 205.048L234.322 111.519Z" fill="#00BE35"/>
<path d="M315.678 111.519C299.594 93.5591 271.232 91.1312 252.33 106.096V106.096L365.214 232.144C373.255 241.124 387.436 242.338 396.887 234.856V234.856C406.338 227.373 407.481 214.028 399.439 205.048L315.678 111.519Z" fill="#00BE35"/>
</svg>
